<?xml version="1.0" encoding="utf-8"?>
<!-- Generator: Adobe Illustrator 22.1.0, SVG Export Plug-In . SVG Version: 6.00 Build 0)  -->
<svg version="1.1"
	 id="svg2" inkscape:version="0.91 r13725" sodipodi:docname="icon-github.svg" xmlns:cc="http://creativecommons.org/ns#" xmlns:dc="http://purl.org/dc/elements/1.1/" xmlns:inkscape="http://www.inkscape.org/namespaces/inkscape" xmlns:rdf="http://www.w3.org/1999/02/22-rdf-syntax-ns#" xmlns:sodipodi="http://sodipodi.sourceforge.net/DTD/sodipodi-0.dtd" xmlns:svg="http://www.w3.org/2000/svg"
	 xmlns="http://www.w3.org/2000/svg" xmlns:xlink="http://www.w3.org/1999/xlink" x="0px" y="0px" viewBox="0 0 16 16"
	 style="enable-background:new 0 0 16 16;" xml:space="preserve">
<style type="text/css">
	.st0{fill:#F0EFEE;}
</style>
<sodipodi:namedview  bordercolor="#666666" borderopacity="1" gridtolerance="10" guidetolerance="10" id="namedview6" inkscape:current-layer="svg2" inkscape:cx="-2.1355932" inkscape:cy="8" inkscape:pageopacity="0" inkscape:pageshadow="2" inkscape:window-height="480" inkscape:window-maximized="0" inkscape:window-width="1016" inkscape:window-x="0" inkscape:window-y="0" inkscape:zoom="14.75" objecttolerance="10" pagecolor="#ffffff" showgrid="false">
	</sodipodi:namedview>
<path id="path4" class="st0" d="M8,0.4c-4.3,0-7.8,3.5-7.8,7.8c0,3.4,2.2,6.3,5.3,7.4c0.4,0.1,0.5-0.2,0.5-0.4c0-0.2,0-0.7,0-1.3
	c-2.2,0.5-2.6-1-2.6-1c-0.4-0.9-0.9-1.1-0.9-1.1c-0.7-0.5,0.1-0.5,0.1-0.5C3.4,11.3,3.8,12,3.8,12c0.7,1.2,1.8,0.8,2.3,0.6
	c0.1-0.5,0.3-0.8,0.5-1C4.9,11.4,3,10.8,3,7.8c0-0.8,0.3-1.5,0.8-2.1c-0.1-0.2-0.3-1,0.1-2.1c0,0,0.7-0.2,2.1,0.8
	C6.7,4.3,7.3,4.2,8,4.2c0.7,0,1.3,0.1,1.9,0.3c1.5-1,2.1-0.8,2.1-0.8c0.4,1.1,0.2,1.9,0.1,2.1c0.5,0.5,0.8,1.2,0.8,2.1
	c0,3-1.8,3.6-3.5,3.8c0.3,0.2,0.5,0.7,0.5,1.4c0,1,0,1.9,0,2.1c0,0.2,0.1,0.4,0.5,0.4c3.1-1,5.3-3.9,5.3-7.4
	C15.8,3.9,12.3,0.4,8,0.4z"/>
</svg>
